<svg width="288" height="141" viewBox="0 0 288 141" fill="none" xmlns="http://www.w3.org/2000/svg">
<path d="M14.6583 71.1725C-2.11999 92.2607 -3.242 102.443 17.4859 116.104C43.8707 127.401 53.0765 123.438 59.8226 98.5401C55.2216 100.99 50.9691 97.8294 45.5816 94.6596C52.0255 93.7628 63.4875 97.8718 67.9603 87.9198C61.698 91.5498 50.4327 89.2095 47.0057 84.652C55.1359 83.6317 70.5703 84.6657 77.3187 78.1165C71.0472 80.31 57.2486 77.6762 55.1434 75.2572C65.8867 73.4128 77.3063 75.0593 86.0667 69.3343C78.7151 71.1144 66.5527 69.1565 63.688 66.475C72.2333 66.5656 84.9623 66.8122 94.2045 61.3691C86.7854 61.7881 76.2303 59.7498 74.4705 55.4463C89.1414 55.9237 95.3712 57.8358 109.259 51.5658C98.1561 53.8425 94.9044 49.1702 90.9494 45.0303C104.071 47.8534 110.965 46.2301 122.89 40.7413C115.658 41.1622 112.422 40.1566 109.259 34.41C122.441 27.8283 122.515 27.8816 132 18.2753C120.556 14.2933 120.119 9.43334 109.259 22.1558C105.962 17.1342 105.724 13.4988 109.259 5C100.995 11.3318 97.6253 15.837 94.2045 25.8321C89.804 19.3371 90.8747 14.3767 94.2045 5C82.2943 14.8889 77.6774 21.4187 76.098 36.2481C72.0698 26.0389 71.8914 20.3151 76.098 10.1059C64.0619 20.986 59.7921 28.8605 55.1434 45.0303C53.3736 37.9509 53.4235 33.3597 55.1434 24.1982C45.718 39.1242 42.5935 48.9096 39.6818 68.1089C37.8471 62.4152 37.4207 58.1335 39.6818 45.0303C30.6908 56.5707 29.0435 64.1724 29.7131 78.9334C24.3806 73.4264 24.0696 69.3914 25.8477 61.3691C20.2796 68.5285 18.2752 73.4806 17.4859 84.652C14.002 81.8409 12.7336 79.5588 14.6583 71.1725Z" fill="#F09A18"/>
<path d="M6.31709 140C10.3287 131.439 13.6271 123.364 17.4859 116.104M122.89 20.3177C74.2835 40.2884 47.3799 59.8645 17.4859 116.104M17.4859 116.104C-3.242 102.443 -2.11999 92.2607 14.6583 71.1725C12.7336 79.5588 14.002 81.8409 17.4859 84.652C18.2752 73.4806 20.2796 68.5285 25.8477 61.3691C24.0696 69.3914 24.3806 73.4264 29.7131 78.9334C29.0435 64.1724 30.6908 56.5707 39.6818 45.0303C37.4207 58.1335 37.8471 62.4152 39.6818 68.1089C42.5935 48.9096 45.718 39.1242 55.1434 24.1982C53.4235 33.3597 53.3736 37.9509 55.1434 45.0303C59.7921 28.8605 64.0619 20.986 76.098 10.1059C71.8914 20.3151 72.0698 26.0389 76.098 36.2481C77.6774 21.4187 82.2943 14.8889 94.2045 5C90.8747 14.3767 89.804 19.3371 94.2045 25.8321C97.6253 15.837 100.995 11.3318 109.259 5C105.724 13.4988 105.962 17.1342 109.259 22.1558C120.119 9.43334 120.556 14.2933 132 18.2753C122.515 27.8816 122.441 27.8283 109.259 34.41C112.422 40.1566 115.658 41.1622 122.89 40.7413C110.965 46.2301 104.071 47.8534 90.9494 45.0303C94.9044 49.1702 98.1561 53.8425 109.259 51.5658C95.3712 57.8358 89.1414 55.9237 74.4705 55.4463C76.2303 59.7498 86.7854 61.7881 94.2045 61.3691C84.9623 66.8122 72.2333 66.5656 63.688 66.475C66.5527 69.1565 78.7151 71.1144 86.0667 69.3343C77.3063 75.0593 65.8867 73.4128 55.1434 75.2572C57.2486 77.6762 71.0472 80.31 77.3187 78.1165C70.5703 84.6657 55.1359 83.6317 47.0057 84.652C50.4327 89.2095 61.698 91.5498 67.9603 87.9198C63.4875 97.8718 52.0255 93.7628 45.5816 94.6596C50.9691 97.8294 55.2216 100.99 59.8226 98.5401C53.0765 123.438 43.8707 127.401 17.4859 116.104ZM6.31709 140C10.3287 131.439 13.6271 123.364 17.4859 116.104" stroke="black" stroke-width="3"/>
<path d="M104.375 76.75C104.583 76.4167 104.708 76.125 104.75 75.875C104.792 75.5833 104.917 75.2708 105.125 74.9375C105.958 74.4792 106.708 73.9375 107.375 73.3125C108.042 72.6458 108.812 72.1042 109.688 71.6875C110.271 71.2708 110.729 71 111.062 70.875C111.438 70.7083 111.792 70.5 112.125 70.25C112.5 70.0833 112.854 69.9167 113.188 69.75C113.562 69.5833 113.979 69.4375 114.438 69.3125C114.771 69.2292 115.062 69.125 115.312 69C115.562 68.8333 115.812 68.7083 116.062 68.625C116.646 68.4167 117.229 68.2292 117.812 68.0625C118.396 67.8958 118.958 67.7292 119.5 67.5625C119.708 67.4792 119.958 67.375 120.25 67.25C120.542 67.125 120.812 67.0833 121.062 67.125C121.521 67.2083 121.792 67.2292 121.875 67.1875C122 67.1458 122.104 67.125 122.188 67.125C122.521 67.0833 122.792 67.125 123 67.25C123.25 67.375 123.521 67.4792 123.812 67.5625C124.062 67.6458 124.292 67.7083 124.5 67.75C124.75 67.7917 124.979 67.8542 125.188 67.9375C125.396 68.0208 125.562 68.1458 125.688 68.3125C125.854 68.4375 126 68.5625 126.125 68.6875C126.292 68.7708 126.438 68.875 126.562 69C126.729 69.125 126.896 69.25 127.062 69.375C127.396 70.0833 127.771 70.7917 128.188 71.5C128.604 72.2083 128.812 73.0625 128.812 74.0625C128.562 74.4375 128.417 74.625 128.375 74.625C128.333 74.625 128.292 74.6667 128.25 74.75C127.792 75.0417 127.458 75.3125 127.25 75.5625C127.042 75.7708 126.812 76 126.562 76.25L125.688 77.125C125.562 77.2083 125.417 77.2917 125.25 77.375C125.083 77.4167 124.979 77.5417 124.938 77.75C124.604 77.9167 124.333 78.125 124.125 78.375C123.917 78.625 123.646 78.8125 123.312 78.9375C122.938 79.3958 122.479 79.7708 121.938 80.0625C121.396 80.3125 120.896 80.6042 120.438 80.9375C119.979 81.2292 119.667 81.4167 119.5 81.5C119.375 81.5833 119.25 81.6875 119.125 81.8125C118.667 82.0208 118.25 82.2292 117.875 82.4375C117.542 82.6458 117.146 82.8333 116.688 83C116.479 83.0833 116.271 83.1875 116.062 83.3125C115.896 83.4375 115.667 83.4792 115.375 83.4375C115.167 83.3542 114.958 83.2708 114.75 83.1875C114.542 83.0625 114.354 83.1458 114.188 83.4375C113.646 83.5208 113.125 83.4375 112.625 83.1875C112.167 82.8958 111.917 82.5 111.875 82C111.375 81.5833 111.229 81.0208 111.438 80.3125C111.521 79.9792 111.667 79.6458 111.875 79.3125C112.125 78.9792 112.333 78.6667 112.5 78.375C112.708 78 112.896 77.6458 113.062 77.3125C113.229 76.9375 113.417 76.5833 113.625 76.25C114.208 75.625 114.792 75.0417 115.375 74.5C116 73.9583 116.771 73.5833 117.688 73.375C117.979 73.2917 118.271 73.2083 118.562 73.125C118.854 73.0417 119.125 72.9583 119.375 72.875C119.5 72.9583 119.625 72.9583 119.75 72.875C119.875 72.7917 120 72.7917 120.125 72.875C120.292 73 120.354 73.1458 120.312 73.3125C120.271 73.4792 120.25 73.6667 120.25 73.875C120.125 74.0417 119.958 74.1667 119.75 74.25C119.542 74.2917 119.333 74.3542 119.125 74.4375C118.958 74.4792 118.792 74.5625 118.625 74.6875C118.458 74.7708 118.354 74.9375 118.312 75.1875C117.146 76.1875 116.104 77.4375 115.188 78.9375C115.312 79.0208 115.479 79.125 115.688 79.25C115.896 79.375 116.104 79.4583 116.312 79.5C116.646 79.5833 117.021 79.5 117.438 79.25C117.896 79 118.25 78.8125 118.5 78.6875C119.667 78.1458 120.708 77.4167 121.625 76.5C121.875 76.2917 122.125 76.0625 122.375 75.8125C122.667 75.5625 122.875 75.3125 123 75.0625C123.167 74.8542 123.312 74.6458 123.438 74.4375C123.562 74.2292 123.729 74.0625 123.938 73.9375C123.979 73.5625 123.917 73.2708 123.75 73.0625C123.625 72.8125 123.458 72.5833 123.25 72.375C123.083 72.125 122.896 71.8958 122.688 71.6875C122.479 71.4792 122.333 71.2292 122.25 70.9375C122.042 70.8542 121.854 70.7083 121.688 70.5C121.562 70.2917 121.396 70.1458 121.188 70.0625C121.104 70.0625 120.917 70.0417 120.625 70C120.375 69.9583 120.229 69.9375 120.188 69.9375C119.146 70.1458 118.333 70.375 117.75 70.625C117.167 70.875 116.583 71.125 116 71.375C114.583 72.125 113.271 73 112.062 74C111.938 74.0833 111.792 74.1667 111.625 74.25C111.458 74.3333 111.333 74.4167 111.25 74.5C111.042 74.6667 110.854 74.875 110.688 75.125C110.562 75.375 110.396 75.625 110.188 75.875C109.979 76.1667 109.75 76.4583 109.5 76.75C109.292 77 109.146 77.2917 109.062 77.625C108.812 77.75 108.646 78 108.562 78.375C108.479 78.7083 108.333 78.9792 108.125 79.1875C108.042 79.5208 107.938 79.8333 107.812 80.125C107.688 80.375 107.583 80.6875 107.5 81.0625C107.875 81.8125 108.146 82.3958 108.312 82.8125C108.521 83.2292 108.729 83.6458 108.938 84.0625C108.979 84.5208 109.104 84.9375 109.312 85.3125C109.562 85.6458 109.792 86.0417 110 86.5C110.583 87.4583 111.104 88.4792 111.562 89.5625C112.062 90.6042 112.604 91.6042 113.188 92.5625C113.438 93.1458 113.667 93.7292 113.875 94.3125C114.125 94.8542 114.479 95.3333 114.938 95.75C115.021 96.0417 115.125 96.3333 115.25 96.625C115.417 96.875 115.562 97.1458 115.688 97.4375C115.854 97.9375 116.083 98.4792 116.375 99.0625C116.5 99.3958 116.646 99.6875 116.812 99.9375C116.979 100.188 117.104 100.438 117.188 100.688C117.354 101.062 117.479 101.542 117.562 102.125C117.688 102.667 117.729 103.125 117.688 103.5C117.688 103.917 117.667 104.208 117.625 104.375C117.583 104.542 117.521 104.688 117.438 104.812C117.354 104.896 117.271 105 117.188 105.125C117.104 105.25 117.021 105.5 116.938 105.875C116.562 106.542 116.125 107.146 115.625 107.688C115.125 108.229 114.688 108.854 114.312 109.562C114.062 109.896 113.792 110.188 113.5 110.438C113.208 110.688 112.917 110.938 112.625 111.188C112.333 111.396 112.021 111.583 111.688 111.75C111.396 111.917 111.125 112.125 110.875 112.375C110.167 113 109.417 113.458 108.625 113.75C107.875 114 107.167 114.354 106.5 114.812C106.25 114.812 106 114.833 105.75 114.875C105.5 114.958 105.25 115.042 105 115.125C104.792 115.208 104.562 115.292 104.312 115.375C104.104 115.458 103.875 115.542 103.625 115.625C103.417 115.708 103.229 115.792 103.062 115.875C102.938 115.958 102.771 116.042 102.562 116.125C101.979 116.25 101.354 116.312 100.688 116.312C100.021 116.354 99.3333 116.292 98.625 116.125C97.8333 115.833 97.2083 115.708 96.75 115.75C96.3333 115.792 95.9583 115.625 95.625 115.25C95.4167 115.167 95.2917 115.062 95.25 114.938C95.25 114.812 95.1667 114.688 95 114.562C94.5417 114.188 94.25 113.958 94.125 113.875C94 113.792 93.875 113.688 93.75 113.562C93.125 113.062 92.625 112.479 92.25 111.812C92.125 111.604 92 111.396 91.875 111.188C91.75 110.979 91.6667 110.792 91.625 110.625C91.5417 110.375 91.5417 110.125 91.625 109.875C91.6667 109.583 91.6042 109.312 91.4375 109.062C91.4792 108.771 91.4792 108.458 91.4375 108.125C91.3958 107.792 91.375 107.5 91.375 107.25C91.375 106.875 91.4375 106.5 91.5625 106.125C91.6458 105.75 91.625 105.458 91.5 105.25C91.5833 104.708 91.7083 104.312 91.875 104.062C92.0417 103.771 92.25 103.458 92.5 103.125C93.2083 102.792 93.7917 102.5 94.25 102.25C94.75 101.958 95.25 101.688 95.75 101.438C95.9583 101.354 96.125 101.271 96.25 101.188C96.4167 101.104 96.5833 101.021 96.75 100.938C97.125 100.729 97.5208 100.562 97.9375 100.438C98.3542 100.312 98.7917 100.146 99.25 99.9375C99.625 99.7292 100 99.5417 100.375 99.375C100.792 99.2083 101.188 99.0208 101.562 98.8125C101.812 98.8125 102.042 98.75 102.25 98.625C102.5 98.5 102.771 98.4375 103.062 98.4375C103.146 98.4375 103.25 98.4583 103.375 98.5C103.5 98.5 103.625 98.5 103.75 98.5C103.958 98.5 104.188 98.5 104.438 98.5C104.688 98.5 104.917 98.5417 105.125 98.625C105.333 98.7083 105.521 98.8333 105.688 99C105.854 99.1667 106.083 99.25 106.375 99.25C106.667 99.5417 106.896 99.875 107.062 100.25C107.271 100.583 107.438 100.938 107.562 101.312C107.646 101.521 107.708 101.812 107.75 102.188C107.833 102.562 107.875 102.875 107.875 103.125C107.833 103.75 107.604 104.229 107.188 104.562C106.812 104.896 106.458 105.292 106.125 105.75C105.542 105.958 104.896 106.312 104.188 106.812C103.771 106.771 103.396 106.854 103.062 107.062C102.729 107.229 102.333 107.375 101.875 107.5C101.667 107.542 101.438 107.542 101.188 107.5C100.938 107.458 100.708 107.479 100.5 107.562C100.292 107.604 100.083 107.688 99.875 107.812C99.6667 107.938 99.4583 107.958 99.25 107.875C99.0417 107.792 98.875 107.625 98.75 107.375C98.6667 107.125 98.6667 106.875 98.75 106.625C99 106.208 99.3542 105.958 99.8125 105.875C100.312 105.75 100.792 105.562 101.25 105.312C101.667 105.104 102.021 104.833 102.312 104.5C102.646 104.167 102.979 103.833 103.312 103.5C103.521 103.25 103.771 103 104.062 102.75C104.354 102.5 104.417 102.167 104.25 101.75C103.875 101.458 103.438 101.375 102.938 101.5C102.479 101.625 102.062 101.771 101.688 101.938C100.938 102.271 100.188 102.625 99.4375 103C98.7292 103.375 98.0208 103.729 97.3125 104.062C96.9792 104.188 96.7292 104.333 96.5625 104.5C96.4792 104.625 96.4167 104.792 96.375 105C96.3333 105.208 96.2708 105.396 96.1875 105.562C95.8958 106.188 95.8125 106.812 95.9375 107.438C96.0208 107.646 96.125 107.854 96.25 108.062C96.375 108.229 96.4375 108.417 96.4375 108.625C96.6042 108.792 96.75 108.958 96.875 109.125C97 109.25 97.125 109.396 97.25 109.562C97.375 109.646 97.4792 109.708 97.5625 109.75C97.6458 109.75 97.7708 109.771 97.9375 109.812C98.3542 110.062 98.8542 110.292 99.4375 110.5C99.6875 110.583 100.062 110.708 100.562 110.875C101.104 111.042 101.479 111.125 101.688 111.125C101.896 111.167 102.167 111.125 102.5 111C102.833 110.875 103.125 110.771 103.375 110.688C104.333 110.229 105.312 109.75 106.312 109.25C107.312 108.75 108.292 108.271 109.25 107.812C109.583 107.604 109.896 107.375 110.188 107.125C110.479 106.833 110.729 106.521 110.938 106.188C111.312 105.729 111.625 105.167 111.875 104.5C112.125 103.833 112.312 103.146 112.438 102.438C112.479 102.271 112.5 102.125 112.5 102C112.5 101.833 112.5 101.688 112.5 101.562C112.25 101.104 112.125 100.833 112.125 100.75C112.167 100.625 112.146 100.521 112.062 100.438C111.771 99.9375 111.583 99.6042 111.5 99.4375C111.458 99.2292 111.396 99.0417 111.312 98.875C111.021 98.4167 110.667 98.0208 110.25 97.6875C109.833 97.3542 109.562 96.8542 109.438 96.1875C109.188 95.9792 109 95.7083 108.875 95.375C108.792 95.0417 108.583 94.8333 108.25 94.75C108.167 94.5417 108.083 94.375 108 94.25C107.958 94.0833 107.896 93.875 107.812 93.625C107.562 93.3333 107.375 93.0208 107.25 92.6875C107 92.4792 106.792 92.25 106.625 92C106.458 91.75 106.271 91.4792 106.062 91.1875C105.729 90.8542 105.5 90.6042 105.375 90.4375C105.208 90.2292 105.062 90 104.938 89.75C104.854 89.5 104.708 89.2708 104.5 89.0625C104.375 88.8542 104.208 88.6667 104 88.5C103.833 88.3333 103.708 88.125 103.625 87.875C103.292 87.5 103.021 87.0833 102.812 86.625C102.604 86.125 102.438 85.5833 102.312 85C102.396 84.5 102.312 84.0625 102.062 83.6875C101.812 83.3125 101.75 82.8333 101.875 82.25C102.083 81.6667 102.312 81.0833 102.562 80.5C102.812 79.9167 103.021 79.375 103.188 78.875C103.396 78.7917 103.521 78.6458 103.562 78.4375C103.604 78.1875 103.667 77.9583 103.75 77.75L104.375 76.75ZM153.125 95.9375C153.333 95.9792 153.458 96.0625 153.5 96.1875C153.583 96.3125 153.708 96.375 153.875 96.375C153.917 96.5833 153.896 96.75 153.812 96.875C153.771 97 153.708 97.125 153.625 97.25C153.542 97.3333 153.458 97.4375 153.375 97.5625C153.333 97.6458 153.333 97.7708 153.375 97.9375C153 98.1875 152.542 98.3542 152 98.4375C151.458 98.4792 151.042 98.6875 150.75 99.0625C150.042 99.3958 149.271 99.625 148.438 99.75C147.646 99.8333 146.812 99.9583 145.938 100.125C145.521 100.417 145.229 100.583 145.062 100.625C144.938 100.667 144.792 100.729 144.625 100.812C144.208 100.646 143.771 100.562 143.312 100.562C142.854 100.562 142.396 100.5 141.938 100.375C141.688 100.458 141.438 100.5 141.188 100.5C140.979 100.5 140.75 100.542 140.5 100.625C140.333 100.958 140.25 101.333 140.25 101.75C140.25 102.167 140.188 102.542 140.062 102.875L139.688 103.625C139.646 103.833 139.604 104.042 139.562 104.25C139.562 104.417 139.521 104.604 139.438 104.812C139.354 104.938 139.25 105.083 139.125 105.25C139.042 105.417 139 105.604 139 105.812C138.708 106.146 138.5 106.542 138.375 107C138.25 107.417 138.021 107.771 137.688 108.062C137.562 108.479 137.354 108.812 137.062 109.062C136.812 109.312 136.562 109.604 136.312 109.938C135.854 110.562 135.438 111.104 135.062 111.562C134.729 112.021 134.271 112.417 133.688 112.75C133.479 113.083 133.229 113.312 132.938 113.438C132.688 113.688 132.521 113.896 132.438 114.062C132.062 114.271 131.646 114.521 131.188 114.812C130.729 115.104 130.25 115.312 129.75 115.438C129.042 115.604 128.354 115.583 127.688 115.375C127.021 115.167 126.396 114.875 125.812 114.5C125.438 114.542 125.125 114.458 124.875 114.25C124.667 114.083 124.396 113.958 124.062 113.875C123.604 113.458 123.104 113.083 122.562 112.75C122.021 112.417 121.625 111.958 121.375 111.375C121.292 110.917 121.208 110.458 121.125 110C121 109.542 120.896 109.125 120.812 108.75C120.729 108.375 120.729 107.979 120.812 107.562C120.854 107.146 120.854 106.729 120.812 106.312C120.812 105.854 120.812 105.479 120.812 105.188C120.771 104.854 120.854 104.458 121.062 104C121.312 103.458 121.479 103.021 121.562 102.688C121.646 102.312 121.729 102 121.812 101.75C121.938 101.542 122.062 101.312 122.188 101.062C122.312 100.812 122.458 100.583 122.625 100.375C122.875 100 123.167 99.625 123.5 99.25C123.833 98.875 124.167 98.5208 124.5 98.1875C124.75 97.8542 124.979 97.5833 125.188 97.375C125.521 97.0417 125.875 96.7292 126.25 96.4375C126.625 96.1458 127 95.8125 127.375 95.4375C127.458 95.3125 127.562 95.2083 127.688 95.125C127.812 95.0417 127.938 94.9583 128.062 94.875C128.479 94.625 128.854 94.4167 129.188 94.25C129.562 94.0833 129.979 93.8958 130.438 93.6875C130.771 93.5208 131.083 93.4167 131.375 93.375C131.708 93.2917 132.083 93.2083 132.5 93.125C132.792 93.125 133.042 93.125 133.25 93.125C133.458 93.125 133.667 93.0833 133.875 93C133.75 92.6667 133.896 92.4375 134.312 92.3125C134.729 92.1875 135.042 92.1458 135.25 92.1875C135.667 92.1875 136 92.2917 136.25 92.5C136.5 92.6667 136.729 92.875 136.938 93.125C137.396 93.4583 137.854 93.8958 138.312 94.4375C138.396 94.5208 138.5 94.5833 138.625 94.625C138.75 94.6667 138.854 94.7292 138.938 94.8125C139.104 95.0208 139.208 95.25 139.25 95.5C139.333 95.75 139.479 95.9792 139.688 96.1875C139.812 96.2708 139.938 96.375 140.062 96.5C140.188 96.625 140.271 96.7917 140.312 97C140.521 97.0833 140.708 97.1667 140.875 97.25C141.083 97.2917 141.292 97.3333 141.5 97.375C141.708 97.4583 141.917 97.4792 142.125 97.4375C142.375 97.3958 142.646 97.3958 142.938 97.4375C143.146 97.4792 143.333 97.5417 143.5 97.625C143.667 97.6667 143.854 97.6875 144.062 97.6875C144.396 97.6458 144.729 97.5625 145.062 97.4375C145.438 97.3125 145.854 97.2917 146.312 97.375C146.938 97.5417 147.583 97.4792 148.25 97.1875C148.958 96.8958 149.667 96.7083 150.375 96.625C150.542 96.625 150.688 96.625 150.812 96.625C150.938 96.5833 151.083 96.5625 151.25 96.5625C151.458 96.3958 151.729 96.2708 152.062 96.1875C152.396 96.1042 152.75 96.0208 153.125 95.9375ZM135.25 97.8125C134.833 97.4375 134.583 97.2083 134.5 97.125C134.458 97 134.396 96.9167 134.312 96.875C134.146 96.7083 133.938 96.6042 133.688 96.5625C133.438 96.5208 133.208 96.4792 133 96.4375C132.333 96.3125 131.771 96.3958 131.312 96.6875C130.896 96.9375 130.479 97.1875 130.062 97.4375C129.396 97.8542 128.812 98.375 128.312 99C128.188 99.2083 128.042 99.4375 127.875 99.6875C127.75 99.9375 127.646 100.208 127.562 100.5C127.396 100.833 127.25 101.146 127.125 101.438C127 101.688 126.896 102 126.812 102.375C126.604 102.792 126.479 103.146 126.438 103.438C126.396 103.688 126.354 103.917 126.312 104.125C126.271 104.542 126.188 104.979 126.062 105.438C125.979 105.896 125.938 106.292 125.938 106.625C125.979 106.75 126.042 106.917 126.125 107.125C126.208 107.333 126.292 107.479 126.375 107.562C126.458 107.771 126.542 108 126.625 108.25C126.75 108.5 126.854 108.688 126.938 108.812C127.146 109.104 127.417 109.292 127.75 109.375C128.083 109.458 128.458 109.562 128.875 109.688C129.333 109.938 129.646 110.042 129.812 110C129.979 109.958 130.104 109.938 130.188 109.938C130.729 109.854 131.208 109.625 131.625 109.25C132.042 108.875 132.458 108.583 132.875 108.375C133.208 107.875 133.562 107.354 133.938 106.812C134.354 106.229 134.729 105.646 135.062 105.062C135.188 104.896 135.292 104.708 135.375 104.5C135.458 104.292 135.542 104.104 135.625 103.938C135.917 103.604 136.042 103.417 136 103.375C136 103.333 136.021 103.271 136.062 103.188C136.354 102.562 136.479 102.083 136.438 101.75C136.396 101.417 136.396 101.083 136.438 100.75C136.229 100.292 136.042 99.7917 135.875 99.25C135.75 98.7083 135.542 98.2292 135.25 97.8125ZM171.875 99.625C172.292 100.125 172.479 100.479 172.438 100.688C172.438 100.896 172.438 101.125 172.438 101.375C172.229 101.625 172.062 101.896 171.938 102.188C171.812 102.438 171.625 102.667 171.375 102.875C171.167 103.042 170.938 103.167 170.688 103.25C170.479 103.292 170.292 103.417 170.125 103.625C169.875 103.708 169.667 103.812 169.5 103.938C169.333 104.062 169.083 104.104 168.75 104.062C167.75 105.062 166.854 105.875 166.062 106.5C165.312 107.125 164.521 107.729 163.688 108.312C163.062 108.854 162.396 109.354 161.688 109.812C161.021 110.271 160.333 110.729 159.625 111.188C159.417 111.396 159.229 111.604 159.062 111.812C158.896 111.979 158.688 112.125 158.438 112.25C157.938 112.75 157.417 113.208 156.875 113.625C156.375 114 155.896 114.396 155.438 114.812C154.979 115.146 154.479 115.375 153.938 115.5C153.438 115.625 152.958 115.792 152.5 116C151.708 116.333 151.104 116.396 150.688 116.188C150.229 116.271 149.833 116.333 149.5 116.375C149.208 116.458 148.833 116.438 148.375 116.312C148.25 116.271 148.125 116.208 148 116.125C147.875 116.042 147.729 115.958 147.562 115.875C147.146 115.708 146.812 115.521 146.562 115.312C146.354 115.146 146.167 114.979 146 114.812C145.875 114.688 145.729 114.5 145.562 114.25C145.396 114.042 145.271 113.854 145.188 113.688C144.979 113.354 144.854 112.958 144.812 112.5C144.729 112 144.625 111.521 144.5 111.062C144.417 110.604 144.292 110.146 144.125 109.688C143.958 109.229 143.896 108.75 143.938 108.25C143.979 107.917 144.062 107.604 144.188 107.312C144.271 106.979 144.354 106.646 144.438 106.312C144.688 105.729 144.896 105.188 145.062 104.688C145.229 104.188 145.417 103.708 145.625 103.25C145.75 103.042 145.875 102.875 146 102.75C146.167 102.625 146.312 102.458 146.438 102.25C146.521 102.167 146.562 102.042 146.562 101.875C146.604 101.708 146.667 101.562 146.75 101.438C147.083 101.062 147.438 100.688 147.812 100.312C148.188 99.8958 148.521 99.4583 148.812 99C149.021 98.7083 149.229 98.4583 149.438 98.25C149.688 98 149.917 97.7292 150.125 97.4375C150.375 97.1042 150.542 96.9167 150.625 96.875C150.75 96.7917 150.854 96.6875 150.938 96.5625C151.188 96.3125 151.417 96.0625 151.625 95.8125C151.833 95.5208 152.042 95.2292 152.25 94.9375C152.542 94.6458 152.833 94.3333 153.125 94C153.458 93.6667 153.792 93.3958 154.125 93.1875C154.5 92.9792 154.875 92.7917 155.25 92.625C155.667 92.4583 156.104 92.2708 156.562 92.0625C156.771 91.9792 156.958 91.875 157.125 91.75C157.333 91.625 157.542 91.5208 157.75 91.4375C158 91.3542 158.229 91.2917 158.438 91.25C158.646 91.2083 158.833 91.1042 159 90.9375C159.25 90.9792 159.479 90.9375 159.688 90.8125C159.896 90.6875 160.104 90.5833 160.312 90.5C160.521 90.4583 160.708 90.4583 160.875 90.5C161.083 90.5417 161.25 90.5 161.375 90.375C161.5 90.4583 161.625 90.5 161.75 90.5C161.917 90.5 162.042 90.5417 162.125 90.625C162.292 90.6667 162.438 90.7708 162.562 90.9375C162.729 91.1042 162.833 91.2917 162.875 91.5C162.958 92.125 162.792 92.7708 162.375 93.4375C162 94.1042 161.667 94.6042 161.375 94.9375C161.167 95.2708 160.938 95.5625 160.688 95.8125C160.438 96.0208 160.146 96.2292 159.812 96.4375C159.312 96.4375 158.792 96.4792 158.25 96.5625C157.75 96.6042 157.292 96.5833 156.875 96.5C156.792 96.6667 156.667 96.7917 156.5 96.875C156.375 96.9167 156.354 97.0208 156.438 97.1875C155.021 98.3958 153.771 99.6875 152.688 101.062C151.604 102.396 150.75 103.979 150.125 105.812C149.917 106.521 149.708 107.042 149.5 107.375C149.292 107.667 149.188 107.979 149.188 108.312C149.438 109.188 149.854 109.938 150.438 110.562C151.021 111.146 151.604 111.479 152.188 111.562C152.854 111.646 153.438 111.521 153.938 111.188C154.479 110.854 154.979 110.562 155.438 110.312C156.021 109.896 156.583 109.521 157.125 109.188C157.708 108.854 158.312 108.5 158.938 108.125C159.104 108.042 159.271 107.958 159.438 107.875C159.604 107.75 159.771 107.625 159.938 107.5C160.479 107.125 160.958 106.771 161.375 106.438C161.833 106.062 162.292 105.708 162.75 105.375C162.958 105.333 163.104 105.271 163.188 105.188C163.312 105.062 163.479 105 163.688 105C164.438 104.333 165.25 103.75 166.125 103.25C167 102.708 167.917 102.167 168.875 101.625C169.167 101.333 169.458 101.083 169.75 100.875C170.083 100.625 170.396 100.354 170.688 100.062C170.979 100.062 171.188 100 171.312 99.875C171.438 99.7083 171.625 99.625 171.875 99.625ZM181.75 82.875C181.833 83 181.875 83.125 181.875 83.25C181.875 83.375 181.938 83.4792 182.062 83.5625C181.979 83.9375 181.896 84.3333 181.812 84.75C181.771 85.125 181.75 85.5 181.75 85.875C181.75 86.0417 181.792 86.1875 181.875 86.3125C182 86.4375 182.062 86.5625 182.062 86.6875C181.854 87.1875 181.688 87.4792 181.562 87.5625C181.479 87.6458 181.438 87.75 181.438 87.875C181.229 87.9583 181.062 88.0833 180.938 88.25C180.854 88.4167 180.688 88.5 180.438 88.5C180.354 88.625 180.25 88.7292 180.125 88.8125C180.042 88.8542 179.979 88.9583 179.938 89.125C179.271 89.4167 178.521 89.3958 177.688 89.0625C177.479 88.6875 177.188 88.4167 176.812 88.25C176.271 87.4583 176.25 86.5208 176.75 85.4375C176.833 85.2292 176.917 85.0208 177 84.8125C177.125 84.5625 177.229 84.3958 177.312 84.3125C177.771 83.9792 178.104 83.7708 178.312 83.6875C178.479 83.6042 178.646 83.5 178.812 83.375C179.021 83.25 179.25 83.1458 179.5 83.0625C179.583 83.0208 179.688 83 179.812 83C179.979 83 180.146 82.9583 180.312 82.875C180.479 82.8333 180.625 82.7917 180.75 82.75C180.875 82.7083 181 82.6875 181.125 82.6875L181.75 82.875ZM172.062 110.5C172.438 110.333 172.896 110.271 173.438 110.312C173.979 110.354 174.417 110.271 174.75 110.062C174.917 109.938 175.062 109.812 175.188 109.688C175.312 109.562 175.458 109.521 175.625 109.562C176.292 109.312 176.854 109.062 177.312 108.812C177.771 108.562 178.271 108.375 178.812 108.25C178.938 108.208 179.083 108.125 179.25 108C179.458 107.875 179.604 107.771 179.688 107.688C180.354 107.479 180.833 107.271 181.125 107.062C181.417 106.854 181.688 106.646 181.938 106.438C182.229 106.229 182.5 106.021 182.75 105.812C183.042 105.562 183.396 105.271 183.812 104.938C184.396 104.604 184.875 104.312 185.25 104.062C185.667 103.812 186.104 103.5 186.562 103.125C186.646 102.917 186.75 102.771 186.875 102.688C187.042 102.562 187.167 102.417 187.25 102.25C188 102.25 188.417 102.542 188.5 103.125C188.292 103.583 188 103.958 187.625 104.25C187.292 104.542 186.979 104.875 186.688 105.25C186.354 105.458 186.083 105.646 185.875 105.812C185.667 105.979 185.458 106.229 185.25 106.562C185.208 106.562 185.083 106.667 184.875 106.875C184.667 107.042 184.542 107.125 184.5 107.125C184.25 107.417 184.062 107.604 183.938 107.688C183.854 107.771 183.771 107.833 183.688 107.875C183.646 107.875 183.562 107.917 183.438 108C183.354 108.083 183.167 108.25 182.875 108.5C182.583 108.958 182.208 109.333 181.75 109.625C180.875 110.458 179.917 111.188 178.875 111.812C177.875 112.396 176.958 112.979 176.125 113.562C175.958 113.646 175.812 113.771 175.688 113.938C175.562 114.062 175.417 114.188 175.25 114.312C175.042 114.479 174.708 114.646 174.25 114.812C173.833 114.979 173.458 115.125 173.125 115.25C172.875 115.417 172.646 115.542 172.438 115.625C171.521 115.667 170.812 115.521 170.312 115.188C169.771 114.896 169.354 114.667 169.062 114.5C168.771 114.333 168.521 114.062 168.312 113.688C167.854 113.479 167.562 113.104 167.438 112.562C167.354 111.979 167.25 111.417 167.125 110.875C167.083 110.667 167.042 110.438 167 110.188C166.958 109.896 166.958 109.604 167 109.312C167.083 108.854 167.146 108.375 167.188 107.875C167.229 107.333 167.333 106.875 167.5 106.5C167.708 106.042 167.812 105.583 167.812 105.125C167.854 104.667 167.979 104.208 168.188 103.75C168.438 103.333 168.542 103.104 168.5 103.062C168.5 103.021 168.521 102.958 168.562 102.875C168.646 102.75 168.729 102.625 168.812 102.5C168.938 102.375 169.042 102.229 169.125 102.062L169.5 101.125C169.667 100.833 169.854 100.542 170.062 100.25C170.271 99.9583 170.438 99.6042 170.562 99.1875C170.646 98.9375 170.75 98.7083 170.875 98.5C171.042 98.2917 171.208 98.0625 171.375 97.8125C171.5 97.5625 171.604 97.3125 171.688 97.0625C171.771 96.7708 171.875 96.4792 172 96.1875C172.125 95.8542 172.271 95.5208 172.438 95.1875C172.646 94.8542 172.854 94.5208 173.062 94.1875C173.229 93.8542 173.375 93.6042 173.5 93.4375C173.625 93.2708 173.875 93.1667 174.25 93.125C174.417 93.0833 174.604 93.1042 174.812 93.1875C175.021 93.2292 175.229 93.2083 175.438 93.125C175.979 92.875 176.354 92.75 176.562 92.75C176.771 92.75 176.917 92.6875 177 92.5625C177.458 92.6042 177.792 92.75 178 93C178.208 93.25 178.458 93.5 178.75 93.75C178.5 94.9583 178.208 95.8958 177.875 96.5625C177.583 97.1875 177.25 97.8542 176.875 98.5625C176.667 98.8958 176.458 99.2708 176.25 99.6875C176.042 100.104 175.854 100.479 175.688 100.812C175.479 101.271 175.25 101.688 175 102.062C174.792 102.396 174.604 102.792 174.438 103.25C174.354 103.458 174.25 103.667 174.125 103.875C174.042 104.042 173.958 104.229 173.875 104.438C173.792 104.729 173.667 105 173.5 105.25C173.375 105.458 173.25 105.667 173.125 105.875C173 106.125 172.875 106.375 172.75 106.625C172.625 106.875 172.521 107.146 172.438 107.438C172.229 107.938 172.104 108.25 172.062 108.375C172.021 108.458 171.979 108.542 171.938 108.625C171.854 109.083 171.729 109.458 171.562 109.75C171.396 110.042 171.458 110.25 171.75 110.375L172.062 110.5ZM203.625 97.125C203.667 97.25 203.625 97.5 203.5 97.875C203.292 98.125 203.167 98.3958 203.125 98.6875C203.042 98.8542 202.958 99 202.875 99.125C202.833 99.25 202.792 99.4167 202.75 99.625C202.667 99.875 202.625 100.167 202.625 100.5C202.667 100.833 202.667 101.146 202.625 101.438C202.542 101.896 202.479 102.354 202.438 102.812C202.396 103.229 202.354 103.667 202.312 104.125C202.312 104.583 202.271 105.104 202.188 105.688C202.104 106.271 202.021 106.792 201.938 107.25C202.104 107.542 202.208 107.854 202.25 108.188C202.292 108.521 202.438 108.792 202.688 109C203.521 108.875 204.188 108.688 204.688 108.438C205.188 108.146 205.667 107.75 206.125 107.25C206.5 107.083 206.75 106.938 206.875 106.812C207.042 106.688 207.292 106.521 207.625 106.312C207.708 106.229 207.792 106.146 207.875 106.062C207.958 105.979 208.042 105.896 208.125 105.812C208.583 105.562 208.854 105.396 208.938 105.312C209.062 105.229 209.208 105.146 209.375 105.062C210.083 104.604 210.625 104.125 211 103.625C211.375 103.333 211.625 103.083 211.75 102.875C211.917 102.625 212.25 102.396 212.75 102.188C213.042 101.854 213.333 101.583 213.625 101.375C213.958 101.125 214.271 100.833 214.562 100.5C214.771 100.5 214.938 100.542 215.062 100.625C215.188 100.708 215.333 100.792 215.5 100.875C215.625 101.208 215.646 101.562 215.562 101.938C215.479 102.271 215.333 102.583 215.125 102.875C214.917 103.167 214.812 103.333 214.812 103.375C214.812 103.417 214.792 103.458 214.75 103.5C214.625 103.667 214.458 103.833 214.25 104C214.083 104.125 213.938 104.271 213.812 104.438C213.604 104.812 213.438 105 213.312 105C213.188 105 213.083 105.042 213 105.125C212.625 105.333 212.354 105.5 212.188 105.625C212.062 105.75 211.833 105.917 211.5 106.125C211.042 106.375 210.771 106.542 210.688 106.625C210.604 106.708 210.521 106.771 210.438 106.812C209.896 107.396 209.396 107.875 208.938 108.25C208.521 108.583 208.062 109.042 207.562 109.625C207.396 109.75 207.229 109.875 207.062 110C206.896 110.125 206.75 110.292 206.625 110.5C206.25 110.75 205.938 111 205.688 111.25C205.479 111.5 205.229 111.792 204.938 112.125C204.688 112.25 204.417 112.438 204.125 112.688C203.833 112.896 203.521 113.083 203.188 113.25C203.021 113.333 202.833 113.438 202.625 113.562C202.458 113.646 202.271 113.688 202.062 113.688C201.562 113.771 201.104 113.729 200.688 113.562C200.271 113.396 199.875 113.271 199.5 113.188C199.333 112.938 199.125 112.729 198.875 112.562C198.5 112.104 198.229 111.562 198.062 110.938C197.896 110.312 197.729 109.646 197.562 108.938C197.229 109.146 196.917 109.417 196.625 109.75C196.333 110.083 195.958 110.354 195.5 110.562C194.667 111.354 193.771 112.125 192.812 112.875C191.896 113.583 190.958 114.333 190 115.125C189.875 115.25 189.75 115.354 189.625 115.438C189.5 115.521 189.396 115.542 189.312 115.5C189.104 115.75 188.812 115.896 188.438 115.938C188.104 116.021 187.729 116.021 187.312 115.938C186.896 115.729 186.521 115.583 186.188 115.5C185.854 115.417 185.521 115.292 185.188 115.125C184.479 115 183.896 114.688 183.438 114.188C182.938 113.688 182.521 113.104 182.188 112.438C182.062 112.104 181.979 111.792 181.938 111.5C181.854 111.208 181.771 110.875 181.688 110.5C181.646 110.167 181.583 109.896 181.5 109.688C181.417 109.438 181.417 109.208 181.5 109C181.417 108.875 181.396 108.75 181.438 108.625C181.479 108.458 181.5 108.292 181.5 108.125C181.458 107.542 181.521 106.917 181.688 106.25C181.812 105.583 182 104.979 182.25 104.438C182.333 104.271 182.5 104.062 182.75 103.812C182.833 103.688 182.896 103.562 182.938 103.438C182.979 103.312 183.042 103.208 183.125 103.125C183.208 103 183.333 102.875 183.5 102.75C183.667 102.625 183.812 102.5 183.938 102.375C184.146 102.083 184.375 101.833 184.625 101.625C184.917 101.375 185.188 101.125 185.438 100.875C185.562 100.75 185.667 100.604 185.75 100.438C185.875 100.271 186.042 100.146 186.25 100.062C186.417 99.7708 186.604 99.5417 186.812 99.375C187.021 99.1667 187.25 98.9583 187.5 98.75C188.208 97.875 189.083 97.1458 190.125 96.5625C191.167 95.9792 192.104 95.3125 192.938 94.5625C193.229 94.4375 193.479 94.2917 193.688 94.125C193.896 93.9583 194.104 93.7917 194.312 93.625C194.854 93.1667 195.417 93.0208 196 93.1875C196.583 93.3542 197.125 93.5 197.625 93.625C198.042 94 198.438 94.375 198.812 94.75C199.229 95.125 199.583 95.5417 199.875 96C200.167 95.9583 200.5 95.9583 200.875 96C201.25 96 201.646 95.9583 202.062 95.875C202.188 95.875 202.312 95.8542 202.438 95.8125C202.562 95.7292 202.667 95.6875 202.75 95.6875C203.375 95.8958 203.688 96.2083 203.688 96.625L203.625 97.125ZM195.438 97.5625C194.312 98.1042 193.292 98.75 192.375 99.5C191.458 100.208 190.583 100.979 189.75 101.812C189.542 102.021 189.312 102.229 189.062 102.438C188.854 102.604 188.667 102.792 188.5 103C188.333 103.208 188.167 103.458 188 103.75C187.875 104.042 187.75 104.312 187.625 104.562C187.542 104.729 187.458 104.875 187.375 105C187.292 105.083 187.208 105.188 187.125 105.312C187.042 105.521 187 105.729 187 105.938C187.042 106.146 187.062 106.375 187.062 106.625C187.062 106.833 187.062 107.042 187.062 107.25C187.062 107.458 187.083 107.667 187.125 107.875C187.25 108.333 187.312 108.792 187.312 109.25C187.312 109.583 187.333 110 187.375 110.5C187.458 110.958 187.625 111.271 187.875 111.438C188.125 111.604 188.375 111.646 188.625 111.562C188.917 111.479 189.167 111.417 189.375 111.375C190.833 110.25 192.208 109.083 193.5 107.875C194.792 106.625 195.938 105.229 196.938 103.688C196.854 102.604 196.833 101.562 196.875 100.562C196.958 99.5208 196.875 98.5625 196.625 97.6875C196.458 97.6042 196.25 97.5833 196 97.625C195.792 97.625 195.604 97.6042 195.438 97.5625ZM227.438 106.75C228.146 106.542 228.854 106.354 229.562 106.188C230.271 106.021 231 105.896 231.75 105.812C232.417 105.771 233.104 105.646 233.812 105.438C234.104 105.354 234.396 105.271 234.688 105.188C234.979 105.062 235.25 104.958 235.5 104.875C235.792 104.792 236.062 104.729 236.312 104.688C236.604 104.604 236.854 104.542 237.062 104.5C237.396 104.75 237.542 104.896 237.5 104.938C237.5 104.938 237.542 104.979 237.625 105.062L237.125 105.938C236.958 106.062 236.75 106.146 236.5 106.188C236.292 106.229 236.083 106.292 235.875 106.375C235.708 106.458 235.583 106.542 235.5 106.625C235.417 106.708 235.333 106.771 235.25 106.812C235.083 106.854 234.938 106.854 234.812 106.812C234.729 106.729 234.646 106.667 234.562 106.625C233.562 107.292 232.417 107.75 231.125 108C229.833 108.25 228.604 108.562 227.438 108.938C227.021 109.146 226.604 109.375 226.188 109.625C225.771 109.833 225.333 110.083 224.875 110.375C224.542 111.042 224.062 111.688 223.438 112.312C222.854 112.938 222.25 113.479 221.625 113.938C221.5 114.021 221.354 114.104 221.188 114.188C221.062 114.312 220.958 114.396 220.875 114.438C220.583 114.562 220.25 114.667 219.875 114.75C219.542 114.833 219.229 114.917 218.938 115C218.854 115.083 218.75 115.167 218.625 115.25C218.5 115.333 218.396 115.375 218.312 115.375C218.062 115.417 217.812 115.375 217.562 115.25C217.312 115.125 217.042 115.042 216.75 115C216.542 114.583 216.417 114.312 216.375 114.188C216.333 114.104 216.25 114.042 216.125 114C216 113.542 215.75 113.146 215.375 112.812C215.042 112.479 214.771 112.083 214.562 111.625C214.479 111.458 214.396 111.292 214.312 111.125C214.271 110.917 214.25 110.729 214.25 110.562C214.292 110.104 214.479 109.708 214.812 109.375C215.146 109.042 215.479 108.771 215.812 108.562C216.062 108.938 216.271 109.083 216.438 109C216.646 108.917 216.812 108.833 216.938 108.75C217.146 108.667 217.312 108.625 217.438 108.625C217.604 108.583 217.75 108.542 217.875 108.5C218.208 108.417 218.542 108.354 218.875 108.312C219.208 108.229 219.542 108.167 219.875 108.125C220.292 108.083 220.646 108.104 220.938 108.188C221.229 108.229 221.562 108.208 221.938 108.125C222.146 107.75 222.396 107.396 222.688 107.062C223.021 106.729 223.333 106.417 223.625 106.125C223.833 105.625 224.104 105.083 224.438 104.5C224.771 103.917 225.104 103.354 225.438 102.812L226 101.688C226.083 101.604 226.146 101.521 226.188 101.438C226.271 101.354 226.354 101.229 226.438 101.062C226.521 100.729 226.542 100.417 226.5 100.125C226.5 99.7917 226.479 99.4375 226.438 99.0625C226.062 98.8542 225.667 98.5417 225.25 98.125C225 98.2083 224.75 98.2083 224.5 98.125C224.292 98.0417 224.062 98.0417 223.812 98.125C223.688 98.1667 223.562 98.2292 223.438 98.3125C223.312 98.3958 223.167 98.4792 223 98.5625C222.625 98.7708 222.208 98.9583 221.75 99.125C221.333 99.2917 221 99.5417 220.75 99.875C220.292 100.333 219.917 100.729 219.625 101.062C219.333 101.396 219.021 101.75 218.688 102.125C218.271 102.458 218 102.708 217.875 102.875C217.792 103 217.708 103.104 217.625 103.188C217.375 103.438 217.125 103.667 216.875 103.875C216.625 104.083 216.396 104.312 216.188 104.562C216.104 104.688 215.979 104.812 215.812 104.938C215.688 105.021 215.583 105.125 215.5 105.25C215.25 105.542 215.021 105.854 214.812 106.188C214.646 106.521 214.458 106.854 214.25 107.188C214.042 107.521 213.833 107.854 213.625 108.188C213.417 108.521 213.208 108.854 213 109.188C212.542 110.479 212.021 111.75 211.438 113C210.854 114.208 210.333 115.479 209.875 116.812C209.792 117.271 209.729 117.5 209.688 117.5C209.646 117.542 209.625 117.604 209.625 117.688C209.542 118.021 209.479 118.312 209.438 118.562C209.354 118.854 209.25 119.125 209.125 119.375C209.042 119.708 208.917 120.042 208.75 120.375C208.583 120.75 208.417 121.104 208.25 121.438C208 122.021 207.75 122.646 207.5 123.312C207.25 124.021 207 124.688 206.75 125.312C206.542 125.771 206.375 126.229 206.25 126.688C206.083 127.146 205.917 127.604 205.75 128.062C205.625 128.312 205.562 128.562 205.562 128.812C205.521 129.062 205.458 129.312 205.375 129.562C205.25 130.021 205.104 130.5 204.938 131C204.729 131.5 204.604 131.979 204.562 132.438C203.938 133.021 203.521 133.521 203.312 133.938C202.854 134.396 202.375 134.792 201.875 135.125C201.375 135.5 200.812 135.812 200.188 136.062C199.979 136.062 199.75 136.062 199.5 136.062C199.208 136.062 198.938 136.021 198.688 135.938C198.438 135.896 198.208 135.812 198 135.688C197.792 135.562 197.688 135.375 197.688 135.125C197.646 134.75 197.667 134.271 197.75 133.688C197.792 133.104 197.917 132.604 198.125 132.188C198.292 131.729 198.479 131.292 198.688 130.875C198.854 130.458 199.021 130.104 199.188 129.812C199.438 128.771 199.75 127.854 200.125 127.062C200.333 126.604 200.542 126.167 200.75 125.75C200.958 125.375 201.146 124.958 201.312 124.5C201.396 124.208 201.458 123.896 201.5 123.562C201.542 123.229 201.667 122.938 201.875 122.688C202.167 121.979 202.542 121.312 203 120.688C203.417 120.062 203.854 119.438 204.312 118.812C204.521 118.479 204.708 118.125 204.875 117.75C205.042 117.417 205.229 117.083 205.438 116.75C205.812 116.125 206.125 115.458 206.375 114.75C206.625 114.042 206.979 113.396 207.438 112.812C207.646 112.354 207.854 111.938 208.062 111.562C208.271 111.146 208.479 110.729 208.688 110.312C208.771 110.104 208.854 109.896 208.938 109.688C208.979 109.438 209.042 109.208 209.125 109C209.375 108.625 209.604 108.229 209.812 107.812C210.188 106.979 210.562 106.167 210.938 105.375C211.354 104.542 211.812 103.729 212.312 102.938C212.354 102.479 212.458 102.062 212.625 101.688C212.833 101.312 213.021 100.896 213.188 100.438C213.312 100.104 213.396 99.75 213.438 99.375C213.521 99 213.604 98.6458 213.688 98.3125C213.771 98.0208 213.917 97.7292 214.125 97.4375C214.333 97.1458 214.521 96.8333 214.688 96.5C214.771 96.375 214.854 96.25 214.938 96.125C215.021 95.9583 215.104 95.8125 215.188 95.6875C215.312 95.4375 215.396 95.2292 215.438 95.0625C215.521 94.8542 215.646 94.6458 215.812 94.4375C216.271 93.8958 216.583 93.5833 216.75 93.5C216.958 93.375 217.188 93.2292 217.438 93.0625C218.271 93.0208 218.792 93.2292 219 93.6875C219.208 94.1042 219.396 94.5417 219.562 95C219.479 95.3333 219.396 95.6667 219.312 96C219.229 96.3333 219.146 96.7292 219.062 97.1875C219.396 96.8958 219.75 96.5833 220.125 96.25C220.542 95.9167 220.917 95.5833 221.25 95.25C221.958 94.8333 222.646 94.3958 223.312 93.9375C223.979 93.4375 224.729 93.0208 225.562 92.6875C225.771 92.6042 225.979 92.5208 226.188 92.4375C226.438 92.3542 226.667 92.3125 226.875 92.3125C227.083 92.3125 227.25 92.375 227.375 92.5C227.542 92.5833 227.75 92.6458 228 92.6875C228.208 92.8958 228.438 93.1042 228.688 93.3125C228.979 93.4792 229.229 93.6875 229.438 93.9375C229.604 94.1458 229.729 94.3958 229.812 94.6875C229.896 94.9792 229.979 95.2708 230.062 95.5625C230.146 95.8542 230.25 96.1458 230.375 96.4375C230.542 96.7292 230.646 97 230.688 97.25C230.688 97.4583 230.667 97.6667 230.625 97.875C230.583 98.0833 230.562 98.2917 230.562 98.5C230.562 98.625 230.562 98.75 230.562 98.875C230.604 99 230.625 99.1667 230.625 99.375C230.583 99.8333 230.417 100.354 230.125 100.938C229.833 101.521 229.583 102.042 229.375 102.5C229.208 102.833 229.062 103.146 228.938 103.438C228.812 103.729 228.667 104.042 228.5 104.375C228.292 104.833 228.104 105.25 227.938 105.625C227.771 106 227.604 106.375 227.438 106.75ZM245.625 96.1875C245.333 96.5625 245.042 96.9167 244.75 97.25C244.458 97.5833 244.125 97.8958 243.75 98.1875C243.5 98.6458 243.208 99.0625 242.875 99.4375C242.542 99.8125 242.208 100.167 241.875 100.5C241.708 100.833 241.521 101.104 241.312 101.312C241.104 101.479 240.875 101.667 240.625 101.875C240.5 102.083 240.333 102.292 240.125 102.5C239.958 102.708 239.792 102.917 239.625 103.125C239.5 103.333 239.396 103.562 239.312 103.812C239.229 104.062 239.25 104.333 239.375 104.625C239.833 104.708 240.292 104.646 240.75 104.438C241.208 104.229 241.604 104.042 241.938 103.875C242.271 103.667 242.604 103.5 242.938 103.375C243.312 103.208 243.646 103.021 243.938 102.812L245.562 101.188C245.854 100.938 246.104 100.667 246.312 100.375C246.521 100.083 246.75 99.7708 247 99.4375C247.083 99.0208 247.25 98.6042 247.5 98.1875C247.75 97.7292 247.854 97.2917 247.812 96.875C247.771 96.625 247.688 96.4167 247.562 96.25C247.479 96.0417 247.417 95.8333 247.375 95.625C246.958 95.625 246.625 95.7083 246.375 95.875C246.167 96 245.917 96.1042 245.625 96.1875ZM235.562 100.188C235.646 100.146 235.812 99.9792 236.062 99.6875C236.354 99.3542 236.667 99 237 98.625C237.333 98.2083 237.646 97.8542 237.938 97.5625C238.229 97.2292 238.438 97.0417 238.562 97C238.688 96.7917 238.792 96.625 238.875 96.5C239 96.3333 239.167 96.1875 239.375 96.0625C239.708 95.4375 240.146 94.9375 240.688 94.5625C241.229 94.1458 241.75 93.6667 242.25 93.125C243.042 92.7917 243.833 92.375 244.625 91.875C245.458 91.3333 246.375 91.0417 247.375 91C247.833 91.2083 248.271 91.2708 248.688 91.1875C249.146 91.1042 249.562 91.2083 249.938 91.5C250.146 91.875 250.333 92.125 250.5 92.25C250.667 92.3333 250.792 92.4375 250.875 92.5625C251.042 93.1042 251.167 93.4583 251.25 93.625C251.333 93.75 251.396 93.9167 251.438 94.125C251.479 94.75 251.521 95.2083 251.562 95.5C251.604 95.75 251.604 96 251.562 96.25C251.438 97.375 251.229 98.4375 250.938 99.4375C250.854 99.6875 250.771 99.9583 250.688 100.25C250.604 100.5 250.5 100.729 250.375 100.938C250.083 101.312 249.854 101.646 249.688 101.938C249.562 102.188 249.438 102.396 249.312 102.562C248.812 103.062 248.375 103.479 248 103.812C247.625 104.021 247.25 104.25 246.875 104.5C246.5 104.75 246.083 104.917 245.625 105C245.417 105.125 245.229 105.25 245.062 105.375C244.896 105.458 244.688 105.521 244.438 105.562C244.021 105.854 243.604 106.083 243.188 106.25C242.771 106.375 242.333 106.542 241.875 106.75C241.625 106.833 241.354 106.979 241.062 107.188C240.771 107.396 240.479 107.562 240.188 107.688C239.938 107.771 239.625 107.854 239.25 107.938C238.917 107.979 238.646 108.042 238.438 108.125C238.646 108.583 238.729 109.104 238.688 109.688C238.646 110.271 238.75 110.792 239 111.25C239.542 111.375 240.125 111.479 240.75 111.562C241.417 111.604 242.042 111.583 242.625 111.5C242.833 111.458 243.062 111.396 243.312 111.312C243.562 111.188 243.812 111.104 244.062 111.062C244.521 110.979 244.958 110.875 245.375 110.75C245.833 110.625 246.229 110.458 246.562 110.25C247.771 109.833 248.938 109.271 250.062 108.562C251.188 107.854 252.167 107.083 253 106.25C253.5 105.917 254.042 105.458 254.625 104.875C255.25 104.292 255.729 103.75 256.062 103.25C256.688 102.583 257.229 102.062 257.688 101.688C258.188 101.312 258.646 101.146 259.062 101.188C259.396 101.188 259.708 101.396 260 101.812C260.333 102.188 260.312 102.604 259.938 103.062C259.521 103.312 259.083 103.688 258.625 104.188C258.167 104.688 257.688 105.042 257.188 105.25C256.812 105.5 256.333 105.958 255.75 106.625C255.208 107.292 254.75 107.792 254.375 108.125C254.208 108.292 253.979 108.5 253.688 108.75C253.438 108.958 253.229 109.167 253.062 109.375C252.479 109.875 251.854 110.333 251.188 110.75C250.938 110.667 250.75 110.708 250.625 110.875C250.5 111.042 250.333 111.208 250.125 111.375C250 111.458 249.854 111.542 249.688 111.625C249.562 111.708 249.438 111.792 249.312 111.875C248.979 112.167 248.604 112.458 248.188 112.75C247.812 113.042 247.417 113.292 247 113.5C246.167 114 245.333 114.417 244.5 114.75C243.667 115.125 242.854 115.583 242.062 116.125C241.812 116.167 241.583 116.188 241.375 116.188C241.167 116.229 240.958 116.271 240.75 116.312C240.5 116.396 240.271 116.438 240.062 116.438C239.896 116.438 239.646 116.396 239.312 116.312C238.562 116.104 237.938 115.854 237.438 115.562C236.938 115.271 236.438 114.854 235.938 114.312C235.688 114.062 235.417 113.833 235.125 113.625C234.833 113.417 234.604 113.188 234.438 112.938C234.312 112.729 234.167 112.396 234 111.938C233.833 111.479 233.688 111 233.562 110.5C233.438 109.958 233.333 109.438 233.25 108.938C233.167 108.438 233.125 108.062 233.125 107.812C233.208 107.646 233.312 107.354 233.438 106.938C233.521 106.521 233.625 106.083 233.75 105.625C233.833 105.125 233.917 104.667 234 104.25C234.042 103.833 234.062 103.542 234.062 103.375C234.104 103.333 234.208 103.167 234.375 102.875C234.542 102.542 234.729 102.188 234.938 101.812C235.104 101.438 235.25 101.104 235.375 100.812C235.5 100.479 235.562 100.271 235.562 100.188ZM260.75 106.312C261.083 106.104 261.354 105.833 261.562 105.5C261.771 105.167 262.021 104.833 262.312 104.5C262.854 103.875 263.438 103.354 264.062 102.938C264.354 102.521 264.708 102.208 265.125 102C265.583 101.75 265.938 101.396 266.188 100.938C266.271 100.812 266.333 100.688 266.375 100.562C266.458 100.438 266.542 100.312 266.625 100.188C267.375 99.1458 268.229 98.2292 269.188 97.4375C269.438 97.2292 269.667 97.0208 269.875 96.8125C270.125 96.6042 270.417 96.3958 270.75 96.1875C271.125 95.9792 271.479 95.7083 271.812 95.375C272.188 95.0417 272.583 94.7917 273 94.625C273.292 94.5 273.562 94.4167 273.812 94.375C274.062 94.2917 274.333 94.2083 274.625 94.125C274.917 94.0417 275.167 93.9792 275.375 93.9375C275.625 93.8542 275.896 93.8542 276.188 93.9375C276.854 94.2292 277.354 94.7917 277.688 95.625C277.771 95.8333 277.729 96.2917 277.562 97C277.438 97.6667 277.25 98.4167 277 99.25C276.792 100.042 276.562 100.812 276.312 101.562C276.062 102.312 275.896 102.854 275.812 103.188C275.729 103.521 275.708 103.708 275.75 103.75C275.792 103.75 275.812 103.792 275.812 103.875C275.729 104.083 275.667 104.271 275.625 104.438C275.583 104.604 275.542 104.792 275.5 105C275.417 105.333 275.354 105.792 275.312 106.375C275.271 106.917 275.292 107.354 275.375 107.688C275.833 107.646 276.062 107.604 276.062 107.562C276.104 107.521 276.167 107.5 276.25 107.5C276.375 107.458 276.5 107.458 276.625 107.5C276.792 107.5 276.938 107.479 277.062 107.438C277.521 107.312 277.938 107.146 278.312 106.938C278.688 106.688 279.042 106.396 279.375 106.062C280.125 105.729 280.812 105.396 281.438 105.062C282.021 104.646 282.479 104.354 282.812 104.188C283.188 103.979 283.729 103.708 284.438 103.375C284.688 103.083 285.042 102.833 285.5 102.625C286 102.375 286.417 102.104 286.75 101.812C286.833 101.729 286.938 101.625 287.062 101.5C287.188 101.333 287.312 101.292 287.438 101.375C287.646 101.583 287.771 101.812 287.812 102.062C287.896 102.271 287.917 102.417 287.875 102.5C287.542 102.833 287.354 103.083 287.312 103.25C287.312 103.417 287.271 103.542 287.188 103.625C286.979 103.833 286.667 104.021 286.25 104.188C285.875 104.354 285.646 104.5 285.562 104.625C285.521 104.708 285.458 104.792 285.375 104.875C285.292 104.958 285.167 105.062 285 105.188C284.875 105.271 284.771 105.354 284.688 105.438C284.604 105.562 284.479 105.646 284.312 105.688C284.188 105.688 284.062 105.708 283.938 105.75C283.688 105.958 283.479 106.146 283.312 106.312C283.146 106.479 282.958 106.667 282.75 106.875C282.417 107.208 282.208 107.458 282.125 107.625C282.042 107.75 281.812 107.938 281.438 108.188C281.229 108.312 281.021 108.438 280.812 108.562C280.604 108.688 280.396 108.812 280.188 108.938C279.604 109.229 279.021 109.583 278.438 110C277.854 110.417 277.271 110.833 276.688 111.25C276.271 111.5 275.833 111.729 275.375 111.938C274.958 112.104 274.562 112.312 274.188 112.562C274.021 112.562 273.896 112.562 273.812 112.562C273.771 112.521 273.667 112.542 273.5 112.625C273.292 112.5 273.083 112.5 272.875 112.625C272.667 112.708 272.458 112.708 272.25 112.625C271.833 112.292 271.542 112.083 271.375 112C271.25 111.917 271.146 111.812 271.062 111.688C270.979 111.479 270.938 111.25 270.938 111C270.979 110.75 270.938 110.542 270.812 110.375C270.812 109.458 270.833 108.583 270.875 107.75C270.958 106.917 271.104 106.042 271.312 105.125C271.354 104.833 271.438 104.438 271.562 103.938C271.688 103.396 271.792 102.875 271.875 102.375C271.958 101.875 272.021 101.438 272.062 101.062C272.104 100.688 272.062 100.458 271.938 100.375C271.479 100.625 271 101 270.5 101.5C270.042 102 269.604 102.417 269.188 102.75C268.854 103 268.521 103.229 268.188 103.438C267.896 103.646 267.583 103.875 267.25 104.125C266.958 104.333 266.708 104.542 266.5 104.75C266.292 104.958 266.062 105.208 265.812 105.5C265.521 105.792 265.25 106.083 265 106.375C264.75 106.625 264.458 106.875 264.125 107.125C263.958 107.292 263.792 107.438 263.625 107.562C263.5 107.646 263.375 107.75 263.25 107.875C263.042 108.083 262.833 108.292 262.625 108.5C262.458 108.667 262.229 108.812 261.938 108.938C261.688 109.271 261.354 109.646 260.938 110.062C260.562 110.479 260.167 110.938 259.75 111.438C259.375 111.896 259 112.354 258.625 112.812C258.25 113.271 257.958 113.688 257.75 114.062C257.25 114.479 256.708 114.833 256.125 115.125C255.583 115.458 254.917 115.5 254.125 115.25C253.708 115 253.438 114.792 253.312 114.625C253.188 114.458 253.042 114.333 252.875 114.25C252.917 113.792 252.958 113.354 253 112.938C253.042 112.521 253.167 112.083 253.375 111.625C253.417 111.542 253.479 111.458 253.562 111.375C253.604 111.25 253.667 111.125 253.75 111C253.958 110.625 254.104 110.208 254.188 109.75C254.229 109.292 254.354 108.854 254.562 108.438C254.812 108.021 254.979 107.688 255.062 107.438C255.104 107.146 255.188 106.896 255.312 106.688C255.396 106.479 255.521 106.292 255.688 106.125C255.812 105.917 255.917 105.708 256 105.5C256.083 105.292 256.229 105.062 256.438 104.812C256.646 104.521 256.792 104.271 256.875 104.062C257 103.604 257.146 103.146 257.312 102.688C257.479 102.229 257.667 101.771 257.875 101.312C257.958 101.021 258.042 100.75 258.125 100.5C258.208 100.208 258.312 99.9375 258.438 99.6875C258.646 99.2292 258.854 98.7917 259.062 98.375C259.271 97.9167 259.479 97.4583 259.688 97C259.812 96.75 259.917 96.5417 260 96.375C260.125 96.1667 260.271 95.9583 260.438 95.75C260.562 95.5417 260.667 95.3333 260.75 95.125C260.875 94.9167 261 94.7083 261.125 94.5C261.25 94.2917 261.354 94.0625 261.438 93.8125C261.562 93.5208 261.729 93.25 261.938 93C262.229 92.6667 262.458 92.3542 262.625 92.0625C262.792 91.7708 263.062 91.5833 263.438 91.5C263.604 91.5833 263.771 91.5833 263.938 91.5C264.146 91.4167 264.333 91.3542 264.5 91.3125C264.708 91.2292 264.896 91.1875 265.062 91.1875C265.229 91.1458 265.375 91.2083 265.5 91.375C266.042 91.7083 266.438 92 266.688 92.25C266.938 92.5 267.104 92.7292 267.188 92.9375C267.396 93.3125 267.417 93.7083 267.25 94.125C267.083 94.5 266.792 94.8333 266.375 95.125C266.208 95.8333 265.917 96.5 265.5 97.125C265.083 97.75 264.708 98.3542 264.375 98.9375C264.292 99.1458 264.208 99.3542 264.125 99.5625C264.042 99.7708 263.958 99.9792 263.875 100.188C263.625 100.771 263.354 101.354 263.062 101.938C262.812 102.521 262.521 103.083 262.188 103.625C262.021 103.958 261.875 104.229 261.75 104.438C261.625 104.646 261.5 104.833 261.375 105C261.25 105.125 261.146 105.292 261.062 105.5C260.979 105.708 260.875 105.979 260.75 106.312Z" fill="black"/>
</svg>
