<svg width="325" height="337" viewBox="0 0 325 337" fill="none" xmlns="http://www.w3.org/2000/svg">
<path d="M33.1102 167C-8.12566 218.627 -10.8832 243.556 40.0596 277C104.905 304.656 127.53 294.953 144.11 234C132.802 239.997 122.351 232.26 109.11 224.5C124.947 222.305 153.117 232.364 164.11 208C148.719 216.887 121.033 211.157 112.61 200C132.592 197.502 170.525 200.033 187.11 184C171.697 189.37 137.784 182.922 132.61 177C159.014 172.485 187.08 176.516 208.61 162.5C190.542 166.858 160.651 162.065 153.61 155.5C174.612 155.722 205.896 156.325 228.61 143C210.377 144.026 184.435 139.036 180.11 128.5C216.167 129.669 231.478 134.35 265.61 119C238.322 124.574 230.33 113.135 220.61 103C252.858 109.912 269.804 105.937 299.11 92.5C281.336 93.5303 273.384 91.0685 265.61 77C298.006 60.887 298.19 61.0176 321.5 37.5C293.374 27.7515 292.3 15.8535 265.61 47C257.505 34.7064 256.922 25.8064 265.61 5C245.3 20.5012 237.018 31.5306 228.61 56C217.795 40.0993 220.427 27.9556 228.61 5C199.339 29.2095 187.992 45.1955 184.11 81.5C174.21 56.5064 173.772 42.4936 184.11 17.5C154.529 44.136 144.035 63.4142 132.61 103C128.261 85.6688 128.383 74.4287 132.61 52C109.445 88.5412 101.766 112.497 94.6102 159.5C90.1012 145.561 89.0532 135.079 94.6102 103C72.5132 131.253 68.4647 149.863 70.1102 186C57.0047 172.518 56.2402 162.64 60.6102 143C46.9257 160.527 41.9995 172.651 40.0596 200C31.4972 193.118 28.3798 187.531 33.1102 167Z" fill="#1C1C1C"/>
<path d="M12.6101 335.5C22.4693 314.541 30.5758 294.773 40.0596 277M299.11 42.5C179.651 91.3913 113.53 139.316 40.0596 277M40.0596 277C-10.8832 243.556 -8.12566 218.627 33.1102 167C28.3798 187.531 31.4972 193.118 40.0596 200C41.9995 172.651 46.9257 160.527 60.6102 143C56.2402 162.64 57.0047 172.518 70.1102 186C68.4647 149.863 72.5132 131.253 94.6102 103C89.0532 135.079 90.1012 145.561 94.6102 159.5C101.766 112.497 109.445 88.5412 132.61 52C128.383 74.4287 128.261 85.6688 132.61 103C144.035 63.4142 154.529 44.136 184.11 17.5C173.772 42.4936 174.21 56.5064 184.11 81.5C187.992 45.1955 199.339 29.2095 228.61 5C220.427 27.9556 217.795 40.0993 228.61 56C237.018 31.5306 245.3 20.5012 265.61 5C256.922 25.8064 257.505 34.7064 265.61 47C292.3 15.8535 293.374 27.7515 321.5 37.5C298.19 61.0176 298.006 60.887 265.61 77C273.384 91.0685 281.336 93.5303 299.11 92.5C269.804 105.937 252.858 109.912 220.61 103C230.33 113.135 238.322 124.574 265.61 119C231.478 134.35 216.167 129.669 180.11 128.5C184.435 139.036 210.377 144.026 228.61 143C205.896 156.325 174.612 155.722 153.61 155.5C160.651 162.065 190.542 166.858 208.61 162.5C187.08 176.516 159.014 172.485 132.61 177C137.784 182.922 171.697 189.37 187.11 184C170.525 200.033 132.592 197.502 112.61 200C121.033 211.157 148.719 216.887 164.11 208C153.117 232.364 124.947 222.305 109.11 224.5C122.351 232.26 132.802 239.997 144.11 234C127.53 294.953 104.905 304.656 40.0596 277ZM12.6101 335.5C22.4693 314.541 30.5758 294.773 40.0596 277" stroke="#1C1C1C" stroke-width="3"/>
</svg>
